<svg width="32" height="32" viewBox="0 0 32 32" fill="none" xmlns="http://www.w3.org/2000/svg">
<g clip-path="url(#clip0_357_164)">
<path fill-rule="evenodd" clip-rule="evenodd" d="M15.9998 17.8853L23.5425 25.428C23.794 25.6709 24.1308 25.8053 24.4804 25.8022C24.83 25.7992 25.1644 25.659 25.4116 25.4118C25.6588 25.1646 25.799 24.8301 25.8021 24.4805C25.8051 24.1309 25.6707 23.7941 25.4278 23.5427L17.8852 16L25.4278 8.45734C25.6707 8.20587 25.8051 7.86907 25.8021 7.51947C25.799 7.16988 25.6588 6.83546 25.4116 6.58825C25.1644 6.34104 24.83 6.20081 24.4804 6.19777C24.1308 6.19474 23.794 6.32913 23.5425 6.57201L15.9998 14.1147L8.45718 6.57201C8.20458 6.33513 7.86973 6.20583 7.52349 6.21145C7.17724 6.21707 6.84677 6.35718 6.60199 6.60213C6.35721 6.84708 6.21734 7.17765 6.21196 7.5239C6.20658 7.87015 6.33613 8.20491 6.57318 8.45734L14.1145 16L6.57185 23.5427C6.4445 23.6657 6.34292 23.8128 6.27304 23.9755C6.20317 24.1381 6.16638 24.3131 6.16485 24.4901C6.16331 24.6672 6.19704 24.8427 6.26408 25.0066C6.33112 25.1705 6.43013 25.3193 6.55532 25.4445C6.68051 25.5697 6.82938 25.6687 6.99324 25.7358C7.1571 25.8028 7.33267 25.8365 7.50971 25.835C7.68675 25.8335 7.86171 25.7967 8.02438 25.7268C8.18706 25.6569 8.33418 25.5554 8.45718 25.428L15.9998 17.8853Z" fill="currentColor"/>
</g>
<defs>
<clipPath id="clip0_357_164">
<rect width="32" height="32" fill="white"/>
</clipPath>
</defs>
</svg>
