<svg width="540" height="418" viewBox="0 0 540 418" fill="none" xmlns="http://www.w3.org/2000/svg">
<path d="M513.273 8.57792C528.447 11.2535 537.544 26.5987 527.05 50.307L390.976 387.707C381.391 411.713 365.293 415.058 346.573 399.802L192.512 237.561C191.912 236.946 191.466 236.197 191.213 235.376C190.96 234.555 190.906 233.685 191.055 232.838C191.204 231.992 191.553 231.193 192.072 230.508C192.591 229.823 193.265 229.271 194.039 228.899L431.236 79.995C442.01 73.3753 431.401 67.3823 417.839 72.6861L132.485 189.601C131.616 189.972 130.675 190.14 129.732 190.093C128.789 190.046 127.87 189.784 127.043 189.328L24.1173 135.59C1.13784 124.255 4.07519 107.597 35.8487 100.97L501.732 9.42856C505.484 8.37692 509.408 8.0877 513.273 8.57792Z" stroke="#FEE9FF" stroke-opacity="0.7" stroke-width="16.6667" stroke-linecap="round" stroke-linejoin="round"/>
</svg>
