<svg width="518" height="438" viewBox="0 0 518 438" fill="none" xmlns="http://www.w3.org/2000/svg">
<path d="M486.263 8.88647C501.67 8.88647 513.294 22.4189 507.077 47.5892L431.659 403.492C426.388 428.798 411.115 434.888 390.031 423.114L210.137 290.09C209.439 289.589 208.871 288.929 208.479 288.164C208.087 287.399 207.882 286.552 207.882 285.692C207.882 284.833 208.087 283.985 208.479 283.221C208.871 282.456 209.439 281.796 210.137 281.294L417.873 93.4642C427.334 85.0741 415.846 81.0144 403.411 88.5925L142.694 253.282C141.903 253.799 141.005 254.128 140.068 254.245C139.132 254.362 138.181 254.264 137.287 253.959L26.5938 218.91C1.99528 211.738 1.99527 194.822 32.1353 182.778L475.044 11.7283C478.557 10.0411 482.371 9.07483 486.263 8.88647Z" stroke="#FEE9FF" stroke-opacity="0.7" stroke-width="16.6667" stroke-linecap="round" stroke-linejoin="round"/>
</svg>
