<svg width="518" height="438" viewBox="0 0 518 438" fill="none" xmlns="http://www.w3.org/2000/svg">
<path d="M486.263 8.8866C501.671 8.8866 513.294 22.419 507.077 47.5894L431.659 403.492C426.388 428.798 411.116 434.888 390.031 423.114L210.137 290.091C209.44 289.589 208.871 288.929 208.479 288.164C208.087 287.4 207.883 286.552 207.883 285.693C207.883 284.833 208.087 283.986 208.479 283.221C208.871 282.456 209.44 281.796 210.137 281.295L417.873 93.4643C427.334 85.0742 415.846 81.0145 403.412 88.5926L142.694 253.282C141.903 253.799 141.005 254.128 140.069 254.245C139.132 254.362 138.181 254.265 137.288 253.959L26.5941 218.91C1.99552 211.738 1.99552 194.822 32.1355 182.778L475.045 11.7284C478.557 10.0412 482.372 9.07495 486.263 8.8866Z" stroke="black" stroke-opacity="0.1" stroke-width="16.6667" stroke-linecap="round" stroke-linejoin="round"/>
</svg>
